<?xml version="1.0" encoding="UTF-8"?>
<svg id="_レイヤー_2" data-name="レイヤー_2" xmlns="http://www.w3.org/2000/svg" xmlns:xlink="http://www.w3.org/1999/xlink" viewBox="0 0 568.26 267.28">
  <defs>
    <style>
      .cls-1 {
        filter: url(#drop-shadow-2);
      }

      .cls-2 {
        fill: #fff;
      }

      .cls-3 {
        fill: #6d1318;
      }

      .cls-4 {
        filter: url(#drop-shadow-1);
      }
    </style>
    <filter id="drop-shadow-1" x="0" y="0" width="559.46" height="270.53" filterUnits="userSpaceOnUse">
      <feOffset dx="7" dy="7"/>
      <feGaussianBlur result="blur" stdDeviation="0"/>
      <feFlood flood-color="#fff" flood-opacity=".7"/>
      <feComposite in2="blur" operator="in"/>
      <feComposite in="SourceGraphic"/>
    </filter>
    <filter id="drop-shadow-2" x="191.55" y="91.12" width="383.71" height="183.16" filterUnits="userSpaceOnUse">
      <feOffset dx="7" dy="7"/>
      <feGaussianBlur result="blur-2" stdDeviation="0"/>
      <feFlood flood-color="#231815" flood-opacity=".7"/>
      <feComposite in2="blur-2" operator="in"/>
      <feComposite in="SourceGraphic"/>
    </filter>
  </defs>
  <g id="_レイヤー_1-2" data-name="レイヤー_1">
    <g class="cls-4">
      <path class="cls-3" d="M262.72,14.54c-10.41-.4-24.76,3.23-41.8,43.25-15.46,36.46-49.4,128.07-78.73,205.74h-18.95C98.68,196.56,59.44,93.52,44.38,53.5,29.72,15.85,26.55,10.3,0,5.94V0h113.73v5.94c-30.12,5.15-28.53,12.29-22.19,30.12,7.13,21.4,34.87,95.11,57.46,155.34,13.47-33.29,40.02-105.02,54.69-144.64,11.49-31.31,9.11-35.67-28.93-40.82V0l377.7,4.83-289.74,9.71Z"/>
    </g>
    <g class="cls-1">
      <path class="cls-2" d="M296.74,221.88c-.96,6.75-4.43,25.63-5.59,30.26h-94.06v-3.08c16.58-2.31,17.93-3.28,17.93-20.43v-78.25c0-17.35-.96-18.89-14.65-20.43v-3.08h58.4c18.89,0,26.41-.19,27.95-.39.19,7.32.96,19.66,1.93,27.95l-3.08.58c-1.54-4.82-4.05-11.95-8.29-16.96-3.47-4.24-7.71-5.4-19.08-5.4h-14.46c-4.05,0-4.82.77-4.82,4.63v46.07h18.7c15.23,0,15.8-4.24,18.5-16.19h3.08v38.16h-3.08c-2.7-11.37-3.28-16.19-18.5-16.19h-18.7v41.05c0,13.49,2.89,16,14.84,16.19h11.37c11.37,0,14.07-1.54,18.89-6.75,3.47-3.85,6.55-10.41,9.83-18.31l2.89.58Z"/>
      <path class="cls-2" d="M370.1,252.14v-3.08c15.41-3.08,14.45-6.55,10.4-14.06-2.12-4.04-6.55-12.71-20.61-37.57-10.02,15.41-15.6,24.66-22.54,36.99-5.39,9.44-2.31,11.37,13.29,14.64v3.08h-46.62v-3.08c10.79-2.31,16.57-4.62,22.73-12.52,11.56-15.22,19.46-28.32,30.05-44.12-9.25-16.57-15.99-29.48-26.2-46.43-7.13-11.94-9.25-13.29-21.38-15.99v-3.08h55.1v3.08c-12.33,2.31-12.52,5.4-9.25,11.56,4.05,7.9,9.44,17.72,17.34,32.17,7.13-10.6,12.52-19.84,17.92-29.67,4.62-8.48,3.47-10.98-12.52-14.06v-3.08h44.89v3.08c-14.83,3.47-18.49,5.4-25.62,15.99-8.28,12.14-13.49,20.23-21.58,32.17,11.94,20.42,19.65,35.06,30.25,52.4,8.09,13.29,11.17,16.18,24.66,18.49v3.08h-60.3Z"/>
      <path class="cls-2" d="M507.06,267.28v-6.59c15.18-1.71,14.9-11.98,11.49-23.65-2.18-7.45-6.41-18.78-11.05-31.15h-40.43c-3.76,10.16-7.29,20.11-9.94,28.06-5.08,14.8-1.35,23.45,15.74,25.96l-.22,7.38H191.55l233.25-3.53c14.58-2.43,17.74-14.78,25.48-34.45l44.26-138.18h6.33c13.92,39.11,29.4,98.19,43.98,136.86,7.73,21.21,9.94,30.1,23.42,32.97v6.33h-61.2ZM489.78,131.77c-6.85,18.34-13.88,50.7-20.07,67.05h35.13l-15.07-67.05Z"/>
    </g>
  </g>
</svg>